<svg width="100" height="100" viewBox="0 0 100 100" xmlns="http://www.w3.org/2000/svg">
  <!-- Freddie - Friendly pet -->
  <defs>
    <radialGradient id="friendlyGrad" cx="0.3" cy="0.3">
      <stop offset="0%" stop-color="#FFB6C1"/>
      <stop offset="50%" stop-color="#FF69B4"/>
      <stop offset="100%" stop-color="#FF1493"/>
    </radialGradient>
  </defs>
  <!-- Body -->
  <ellipse cx="50" cy="65" rx="22" ry="18" fill="url(#friendlyGrad)"/>
  <!-- Head -->
  <circle cx="50" cy="42" r="17" fill="url(#friendlyGrad)"/>
  <!-- Ears -->
  <ellipse cx="40" cy="32" rx="5" ry="10" fill="#FF69B4" transform="rotate(-15 40 32)"/>
  <ellipse cx="60" cy="32" rx="5" ry="10" fill="#FF69B4" transform="rotate(15 60 32)"/>
  <!-- Eyes (happy/friendly) -->
  <path d="M43 38 Q46 35 49 38" stroke="black" stroke-width="2" fill="none"/>
  <path d="M51 38 Q54 35 57 38" stroke="black" stroke-width="2" fill="none"/>
  <!-- Nose -->
  <circle cx="50" cy="44" r="2" fill="#FF1493"/>
  <!-- Smile -->
  <path d="M44 48 Q50 54 56 48" stroke="black" stroke-width="2" fill="none"/>
  <!-- Cheek blush -->
  <circle cx="38" cy="45" r="3" fill="#FFB6C1" opacity="0.8"/>
  <circle cx="62" cy="45" r="3" fill="#FFB6C1" opacity="0.8"/>
  <!-- Paws -->
  <circle cx="38" cy="78" r="4" fill="#FF69B4"/>
  <circle cx="62" cy="78" r="4" fill="#FF69B4"/>
  <!-- Tail (wagging) -->
  <path d="M72 60 Q78 55 75 50 Q82 55 78 60 Q85 65 82 70" fill="#FF69B4"/>
  <!-- Heart above head -->
  <path d="M50 20 Q46 16 42 20 Q42 24 50 28 Q58 24 58 20 Q54 16 50 20" fill="#FFB6C1"/>
</svg>